<svg width="710" height="749" viewBox="0 0 710 749" fill="none" xmlns="http://www.w3.org/2000/svg">
<path d="M709.425 748.188V0H1.17612C0.288593 85.2029 -0.953948 256.851 1.17612 261.821C3.83871 268.034 16.2641 287.56 36.6773 302.648C57.0905 317.736 95.2542 327.498 152.944 340.811C210.633 354.124 206.195 380.75 206.195 387.85C206.195 394.951 204.42 449.09 211.521 482.816C218.621 516.542 238.146 536.955 265.66 552.043C293.173 567.131 299.386 584.882 303.824 599.083C308.261 613.283 331.337 664.76 345.538 681.623C359.738 698.486 425.415 719.786 468.017 731.324C502.098 740.555 643.156 746.412 709.425 748.188Z" fill="#F3FBFF"/>
</svg>
